<?xml version="1.0" standalone="no"?>
<!DOCTYPE svg PUBLIC "-//W3C//DTD SVG 20010904//EN"
 "http://www.w3.org/TR/2001/REC-SVG-20010904/DTD/svg10.dtd">
<svg version="1.0" xmlns="http://www.w3.org/2000/svg"
 width="600.000000pt" height="600.000000pt" viewBox="0 0 600.000000 600.000000"
 preserveAspectRatio="xMidYMid meet">
<metadata>
Created by potrace 1.14, written by Peter Selinger 2001-2017
</metadata>
<g transform="translate(0.000000,600.000000) scale(0.100000,-0.100000)"
fill="#000000" stroke="none">
<path d="M2436 5993 c-2 -3 -82 -6 -178 -8 -195 -5 -360 -12 -463 -20 -39 -3
-102 -8 -140 -11 -144 -9 -307 -24 -325 -31 -8 -3 -31 -6 -50 -8 -65 -4 -181
-21 -187 -25 -3 -3 -3 -3 -58 -15 -22 -4 -44 -9 -50 -10 -5 0 -23 -6 -38 -13
-16 -7 -33 -12 -38 -12 -5 0 -9 -5 -9 -11 0 -5 -4 -8 -9 -5 -23 14 -48 -72
-28 -94 9 -10 9 -11 0 -6 -9 5 -11 -6 -9 -40 2 -31 -2 -51 -13 -62 -15 -14
-14 -15 2 -9 11 4 17 2 17 -8 0 -8 -5 -15 -11 -15 -8 0 -7 -5 2 -16 10 -13 10
-17 0 -24 -9 -5 -10 -10 -2 -14 6 -4 11 -12 11 -17 0 -6 -4 -8 -8 -5 -4 2 -8
-4 -8 -14 0 -10 3 -17 7 -14 4 2 9 -3 12 -11 4 -8 1 -12 -6 -9 -8 3 -13 -4
-13 -16 0 -11 4 -20 8 -20 4 0 8 -5 8 -11 0 -5 -5 -7 -12 -3 -7 5 -8 3 -3 -7
5 -7 8 -29 6 -48 -1 -19 4 -38 11 -42 10 -7 8 -9 -5 -9 -11 0 -15 -5 -11 -11
9 -16 11 -149 1 -149 -5 0 -5 -5 -1 -12 12 -18 11 -58 -1 -58 -5 0 -3 -5 5
-10 13 -9 13 -11 0 -19 -12 -9 -12 -11 4 -17 14 -5 15 -9 4 -15 -10 -7 -11 -9
0 -9 7 0 10 -5 6 -11 -7 -12 44 -62 56 -54 4 2 17 -5 30 -17 21 -19 21 -22 6
-28 -10 -3 -18 -10 -18 -15 -3 -46 -65 -103 -103 -95 -5 1 -7 -2 -2 -6 4 -4
-6 -21 -21 -38 -54 -58 -73 -104 -81 -206 -7 -86 -8 -3975 -1 -4033 2 -20 8
-37 12 -37 4 0 7 -3 6 -7 -1 -5 2 -28 6 -53 5 -25 8 -48 7 -52 0 -5 4 -8 10
-8 5 0 7 -5 4 -10 -10 -16 51 -67 119 -99 34 -17 111 -43 171 -60 105 -28 132
-34 208 -46 17 -3 43 -8 57 -12 39 -10 43 -10 106 -17 32 -4 66 -9 74 -11 8
-2 38 -7 65 -10 28 -3 68 -8 90 -10 42 -6 88 -10 195 -20 36 -3 88 -8 117 -10
28 -3 89 -8 135 -10 46 -3 135 -8 198 -12 258 -17 1384 -8 1550 12 19 3 78 7
130 11 130 8 181 12 205 17 11 3 56 8 100 13 44 4 82 8 85 9 3 1 37 5 75 9 39
5 79 10 90 12 11 2 34 6 50 8 28 4 127 24 150 30 6 2 33 7 60 11 56 10 54 10
75 17 8 3 49 16 90 28 141 43 232 107 244 174 3 14 7 29 10 34 3 5 7 19 10 33
20 102 24 125 19 132 -3 5 0 13 8 17 10 7 10 11 0 24 -9 11 -10 16 -2 16 8 0
11 510 11 1930 0 1062 -4 1930 -8 1930 -4 0 -7 27 -7 60 0 33 -3 60 -6 60 -4
0 -5 9 -2 20 3 11 1 20 -5 20 -6 0 -9 9 -7 20 2 11 -1 20 -7 20 -6 0 -9 3 -5
6 11 11 -61 73 -102 86 -23 8 -38 18 -34 23 5 4 3 5 -4 2 -15 -9 -45 2 -37 14
3 5 -2 9 -10 9 -10 0 -13 6 -10 15 4 8 1 15 -6 15 -7 0 -10 7 -6 15 3 8 1 15
-3 15 -5 0 -12 7 -15 16 -3 8 -2 12 3 9 5 -3 12 -1 16 5 4 6 11 8 16 5 5 -4 9
-2 9 3 0 5 7 9 15 10 8 1 22 3 30 4 8 1 17 8 20 16 3 8 12 12 20 8 10 -4 14 0
12 14 -2 11 -7 23 -12 27 -4 5 -5 3 -2 -3 3 -6 0 -11 -8 -11 -13 0 -12 3 1 18
9 10 14 25 11 34 -4 8 -1 15 6 16 7 0 3 4 -8 9 -11 5 -14 9 -6 9 10 1 12 12 9
46 -3 24 -2 43 2 40 4 -2 4 13 0 35 -5 27 -4 40 4 41 6 0 2 4 -9 9 -11 5 -14
9 -7 9 6 1 12 13 12 27 0 17 -4 23 -12 19 -7 -4 -4 1 6 9 11 9 15 16 10 16 -6
0 -9 13 -6 30 3 19 0 30 -7 30 -7 0 -9 5 -6 10 4 6 11 8 16 5 5 -3 7 0 4 7
-10 26 -10 148 0 149 6 0 1 4 -10 9 -11 5 -14 9 -7 9 6 1 12 13 12 27 0 17 -4
23 -12 19 -7 -4 -4 1 6 9 11 9 15 16 9 16 -6 0 -9 9 -6 20 3 13 0 20 -8 20
-11 0 -11 2 1 10 13 8 13 13 1 32 -7 13 -10 20 -5 15 4 -4 14 7 21 24 15 36
17 52 4 45 -5 -3 -12 1 -15 9 -3 8 -9 15 -13 14 -16 -2 -53 14 -53 23 0 5 -4
7 -9 4 -4 -3 -23 -1 -42 5 -40 12 -73 19 -114 25 -82 11 -131 21 -143 27 -7 5
-12 3 -12 -3 0 -6 -5 -8 -12 -4 -6 4 -23 9 -37 10 -54 7 -157 16 -188 18 -18
0 -33 3 -33 6 0 3 -41 5 -90 5 -49 0 -90 3 -90 6 0 3 -24 7 -52 8 -29 1 -102
4 -163 7 -60 3 -167 7 -236 8 -69 2 -131 6 -137 10 -7 4 -12 4 -12 -1 0 -4
-15 -7 -32 -6 -18 1 -33 2 -33 3 0 8 -103 4 -114 -5 -11 -7 -13 -7 -8 2 6 9
-121 11 -528 11 -294 -1 -537 -3 -539 -5z"/>
</g>
</svg>
